<svg width="60" height="99" viewBox="0 0 60 99" fill="none" xmlns="http://www.w3.org/2000/svg">
<path d="M3.51429 97.774C3.12512 97.3848 3 90.6597 3 70.1311V43.0025H2.01429C0.362621 43.0025 0 42.2063 0 38.5795C0 35.2117 1.25592 29.5293 4.11374 19.9668C5.07017 16.7665 5.27175 16.4311 6.23867 16.4311C7.52737 16.4311 7.43198 16.1977 10.0919 25.8597C12.2716 33.7771 12.296 33.8494 12.6613 33.4841C13.1377 33.0077 17.5714 5.60696 17.5714 3.13925V0.573975H19.0714H20.5714V2.93112V5.28826H25.2857H30V2.93112V0.573975H31.5H33V3.31681C33 4.82538 33.9674 11.8164 35.1497 18.8525C37.6789 33.9037 37.6595 33.8089 38.1152 33.3145C38.3096 33.1037 39.3669 29.6525 40.4648 25.6454C42.9594 16.54 43.0051 16.4311 44.3298 16.4311C45.2767 16.4311 45.4943 16.769 46.3307 19.5383L47.2691 22.6454L49.0274 15.8269C50.8748 8.66292 51.5778 7.39666 52.9473 8.7662C53.3343 9.15316 54.9925 14.9146 56.8125 22.1955L60 34.947V65.9397C60 82.9857 59.8829 97.2375 59.7399 97.6104C59.5113 98.206 58.0355 98.2883 47.5781 98.2883C38.5703 98.2883 35.5725 98.158 35.2491 97.7525C35.014 97.4579 34.7297 95.3679 34.6171 93.1081C34.3115 86.972 32.2539 82.8729 27.8607 79.648C25.2036 77.6975 24.6175 77.7941 21.3302 80.724C17.6799 83.9775 16.2059 87.3193 15.9486 92.9249C15.8402 95.2855 15.5589 97.4579 15.3233 97.7525C14.736 98.4873 4.24661 98.5063 3.51429 97.774ZM12.7467 91.3958C13.4115 86.1285 15.0265 82.7448 18.5283 79.2819C20.0056 77.821 22.1304 76.1483 23.25 75.5648L25.2857 74.504L27.2628 75.5529C33.5069 78.8654 37.7143 85.704 37.7143 92.5407V95.2883H40.9286H44.1429V69.1454V43.0025H25.2857H6.42857V69.1454V95.2883H9.34197H12.2554L12.7467 91.3958ZM14.6571 64.774C14.2998 64.4166 14.1429 62.1561 14.1429 57.365V50.4703L16.1933 48.4507C17.321 47.3399 18.5598 46.4311 18.9461 46.4311C19.3324 46.4311 20.2524 46.9393 20.9905 47.5603L22.3325 48.6895L23.5111 47.5603C24.9931 46.1405 25.5822 46.1442 27.0837 47.5827L28.2857 48.7343L29.4877 47.5827C30.1488 46.9493 31.0722 46.4311 31.5396 46.4311C32.007 46.4311 33.2982 47.3538 34.409 48.4816L36.4286 50.532V57.0812C36.4286 60.7761 36.2352 63.9916 35.9849 64.4593C35.5654 65.2432 34.9873 65.2883 25.3563 65.2883C18.0062 65.2883 15.0283 65.1451 14.6571 64.774ZM20.4769 56.9018C20.5882 52.0914 20.5329 51.6719 19.686 50.9055C18.7844 50.0896 18.7673 50.0914 17.9591 51.0895C17.2649 51.9468 17.1429 52.8164 17.1429 56.9072C17.1429 59.5525 17.2806 61.8545 17.4489 62.0229C17.6172 62.1912 18.3404 62.2715 19.056 62.2014L20.3571 62.074L20.4769 56.9018ZM26.9054 56.9018C27.0151 52.1644 26.952 51.6634 26.1554 50.9425C25.3159 50.1828 25.2559 50.1824 24.4286 50.9311C23.6646 51.6225 23.5714 52.2511 23.5714 56.7118C23.5714 59.4646 23.7091 61.8546 23.8775 62.0229C24.0458 62.1912 24.769 62.2715 25.4846 62.2014L26.7857 62.074L26.9054 56.9018ZM33 56.7693C33 52.3561 32.8696 51.1421 32.3491 50.7102C31.8164 50.2681 31.544 50.3095 30.8491 50.9384C30.09 51.6253 30 52.2678 30 56.9975V62.2883H31.5H33V56.7693ZM56.8958 66.0383L56.7857 36.7883L53.6786 36.6623L50.5714 36.5364V39.2552C50.5714 42.1805 50.1295 43.0025 48.5571 43.0025H47.5714V69.1454V95.2883H52.2887H57.006L56.8958 66.0383ZM50.5714 89.9311V87.574H52.0714H53.5714V89.9311V92.2883H52.0714H50.5714V89.9311ZM50.5714 81.7883V79.4311H52.0714H53.5714V81.7883V84.1454H52.0714H50.5714V81.7883ZM50.5714 74.074V71.7168H52.0714H53.5714V74.074V76.4311H52.0714H50.5714V74.074ZM50.5714 65.9311V63.574H52.0714H53.5714V65.9311V68.2883H52.0714H50.5714V65.9311ZM50.5714 58.2168V55.8597H52.0714H53.5714V58.2168V60.574H52.0714H50.5714V58.2168ZM50.5714 50.074V47.7168H52.0714H53.5714V50.074V52.4311H52.0714H50.5714V50.074ZM47.4902 38.3954L47.3571 36.7883H25.2857H3.21429L3.08127 38.3954L2.94826 40.0025H25.2857H47.6232L47.4902 38.3954ZM7.82618 29.3954C7.21942 27.0972 6.58934 25.0627 6.426 24.8742C6.153 24.5592 3.85714 31.8712 3.85714 33.0556C3.85714 33.4027 4.6953 33.574 6.39327 33.574H8.92939L7.82618 29.3954ZM34.2913 33.2525C34.2943 33.0758 33.4004 27.3865 32.3048 20.6097L30.3128 8.28826H25.2278C22.4311 8.28826 20.1429 8.43707 20.1429 8.61895C20.1429 8.80083 19.2755 14.1526 18.2155 20.5118C17.1554 26.871 16.2876 32.4115 16.2869 32.824C16.2858 33.5145 16.9995 33.574 25.2857 33.574C30.2357 33.574 34.2882 33.4293 34.2913 33.2525ZM46.7143 33.1424C46.7143 32.3101 44.4132 24.574 44.1656 24.574C44.028 24.574 43.4591 26.3579 42.9015 28.5383C42.3438 30.7186 41.7958 32.7436 41.6836 33.0383C41.5343 33.4306 42.1801 33.574 44.097 33.574C45.5681 33.574 46.7143 33.385 46.7143 33.1424ZM54.4398 25.6457C53.3339 21.2851 52.3295 17.6178 52.2078 17.496C52.086 17.3743 51.283 19.945 50.4232 23.2086C48.8879 29.037 48.8718 29.1819 49.5181 31.3583L50.1761 33.574H53.3133H56.4506L54.4398 25.6457Z" fill="#F0F0F0"/>
</svg>
