<svg width="54" height="40" viewBox="0 0 54 40" fill="none" xmlns="http://www.w3.org/2000/svg">
<path d="M12.8508 24.6182C11.9553 27.3637 11.3257 29.8917 10.3195 33.2949C6.15792 32.8901 3.50437 31.596 2.02657 30.0713C0.510099 28.5066 0.207582 26.688 0.751183 25.209C1.29701 23.724 2.72815 22.496 4.85665 22.1924C6.9223 21.8978 9.66796 22.4787 12.8508 24.6182ZM25.3801 15.3799C22.1968 17.5199 19.4508 18.1014 17.385 17.8066C15.2567 17.5029 13.8262 16.2749 13.2805 14.79C12.737 13.3112 13.0397 11.4932 14.5559 9.92871C16.0337 8.40399 18.6871 7.10873 22.8488 6.7041C23.855 10.107 24.4847 12.6347 25.3801 15.3799ZM40.6809 31.1309C40.9391 32.9785 40.7079 34.3773 40.177 35.4453C39.6437 36.518 38.7837 37.304 37.7072 37.8848C35.527 39.0608 32.5319 39.3549 29.8459 39.4531L29.8195 39.4541L29.7932 39.458C29.1209 39.555 27.8966 39.4842 26.3576 39.251C24.836 39.0204 23.0574 38.6389 21.3029 38.1455C19.5469 37.6517 17.8281 37.0488 16.4211 36.3789C15.1122 35.7557 14.1405 35.104 13.6281 34.4766C14.3706 31.446 15.099 28.46 15.76 25.4443C15.8518 25.2672 15.8921 25.1935 15.9309 25.1445C15.9506 25.1197 15.9706 25.0981 16.0588 25.0586C16.1708 25.0085 16.3375 24.9538 16.6496 24.8564C16.9476 24.7635 17.3493 24.6394 17.8938 24.4531C20.7411 23.7039 25.3769 23.3123 28.8996 23.8232L29.59 23.9385C36.2183 25.19 39.825 27.8052 40.6809 31.1309ZM52.7063 4.55469C53.2376 5.62369 53.4685 7.02388 53.2092 8.87402C52.3786 12.0938 48.9682 14.6474 42.7336 15.9404L42.1193 16.0615C38.5298 16.7383 33.4491 16.3436 30.4123 15.543C29.8735 15.3587 29.4749 15.2359 29.1789 15.1436C28.8672 15.0463 28.7001 14.9925 28.5881 14.9424C28.4996 14.9028 28.4798 14.8802 28.4602 14.8555C28.4214 14.8066 28.3813 14.7332 28.2893 14.5557C27.6277 11.5393 26.8998 8.5538 26.1574 5.52344C26.6698 4.896 27.6416 4.24428 28.9504 3.62109C30.3574 2.95116 32.0761 2.34838 33.8322 1.85449C35.5867 1.36105 37.3653 0.979673 38.8869 0.749023C40.2336 0.544903 41.3395 0.465488 42.0451 0.513672L42.3225 0.541992L42.3488 0.545898L42.3762 0.546875C45.0622 0.645097 48.0564 0.939309 50.2365 2.11523C51.3131 2.69595 52.173 3.48201 52.7063 4.55469Z" fill="#3A3F45" stroke="#F0F0F0"/>
</svg>
