<svg width="55" height="40" viewBox="0 0 55 40" fill="none" xmlns="http://www.w3.org/2000/svg">
<path d="M14.0729 24.4138C13.0788 27.4023 12.4456 30.0413 11.3139 33.8329C-6.56376 32.3762 0.535995 14.9722 14.0729 24.4138ZM30.4958 39.9529C35.8637 39.7566 42.9052 38.7832 41.8019 31.0299C40.8805 27.3953 37.0033 24.7099 30.3138 23.4468C26.6358 22.7531 21.4732 23.1565 18.3784 23.9748C16.1976 24.7219 16.3316 24.4678 15.9174 25.2708C15.2374 28.3788 14.4845 31.4556 13.7168 34.5889C15.9002 37.7719 27.4918 40.3861 30.4958 39.9529ZM30.9078 16.0255C34.0029 16.8432 39.1656 17.2465 42.8432 16.5532C49.533 15.2911 53.4108 12.6053 54.3315 8.97009C55.4349 1.21676 48.3935 0.24339 43.0253 0.047125C40.0218 -0.386141 28.4295 2.2284 26.2465 5.41174C27.0142 8.54478 27.7664 11.6212 28.4471 14.7301C28.8609 15.5322 28.7269 15.2781 30.9078 16.0255ZM23.8429 6.16681C5.9655 7.62289 13.0652 25.0269 26.602 15.5856C25.6078 12.597 24.9747 9.95829 23.8429 6.16681Z" fill="#3A3F45"/>
</svg>
