<svg width="41" height="31" viewBox="0 0 41 31" fill="none" xmlns="http://www.w3.org/2000/svg">
<path d="M10.0812 18.4353C9.33564 20.6768 8.86073 22.656 8.01193 25.4996C-5.39629 24.4072 -0.0714802 11.3541 10.0812 18.4353ZM22.3984 30.0897C26.4243 29.9425 31.7054 29.2124 30.8779 23.3974C30.1869 20.6715 27.279 18.6574 22.2619 17.7101C19.5034 17.1899 15.6314 17.4924 13.3104 18.1061C11.6747 18.6664 11.7752 18.4759 11.4646 19.0781C10.9545 21.4091 10.3899 23.7167 9.81414 26.0667C11.4517 28.4539 20.1454 30.4146 22.3984 30.0897ZM22.7074 12.1441C25.0287 12.7574 28.9007 13.0599 31.6589 12.5399C36.6762 11.5933 39.5846 9.57897 40.2752 6.85257C41.1027 1.03757 35.8216 0.307543 31.7955 0.160344C29.5429 -0.164606 20.8486 1.7963 19.2114 4.1838C19.7872 6.53358 20.3513 8.84088 20.8619 11.1726C21.1722 11.7741 21.0717 11.5836 22.7074 12.1441ZM17.4087 4.75011C4.00065 5.84217 9.32546 18.8952 19.478 11.8142C18.7323 9.57276 18.2575 7.59372 17.4087 4.75011Z" fill="#3A3F45"/>
</svg>
