<svg width="60" height="67" viewBox="0 0 60 67" fill="none" xmlns="http://www.w3.org/2000/svg">
<path d="M1.74082 65.7959L0.999992 65.2783V40.516C0.999992 18.8117 0.938244 15.73 0.499996 15.5622C0.224998 15.4569 0 14.9998 0 14.5463C0 13.9465 0.257081 13.6249 0.942943 13.3667C1.642 13.1035 2.65502 11.8015 4.85958 8.33272C7.32794 4.44888 7.8616 3.36995 7.99994 1.98364C8.15932 0.386543 8.21034 0.313507 9.1666 0.313507C10.1473 0.313507 10.1699 0.351951 10.34 2.30847C10.4954 4.09593 10.7991 4.75898 13.2596 8.68319C15.5382 12.3174 16.1707 13.0991 16.9749 13.2753C18.4808 13.6052 18.7003 15.1754 17.3024 15.618C16.6975 15.8095 16.6665 16.2561 16.6665 24.7924V33.7656L18.1802 33.6642L19.6939 33.5629L24.1802 22.3329C28.1479 12.4008 28.6665 10.8777 28.6665 9.15502C28.6665 7.48682 28.5707 7.18222 27.9998 7.03329C27.0872 6.79524 27.0725 5.14038 27.9809 4.90343C28.3668 4.80278 28.67 4.39197 28.7309 3.88749C28.9508 2.06485 31.0487 2.06485 31.2686 3.88749C31.3295 4.39197 31.6328 4.80278 32.0186 4.90343C32.927 5.14038 32.9123 6.79524 31.9998 7.03329C31.4299 7.18193 31.3331 7.48681 31.3331 9.13256C31.3331 11.1138 31.3875 11.2661 38.6303 29.573L40.2089 33.5629L41.771 33.6642L43.333 33.7656V24.8489V15.9322L42.583 15.6039C42.093 15.3895 41.833 14.9876 41.833 14.4445C41.833 13.7993 42.0765 13.5348 42.9205 13.2626C43.8202 12.9725 44.4812 12.1686 46.7475 8.6077C49.2131 4.73375 49.5042 4.10399 49.66 2.30847C49.8296 0.351855 49.8522 0.313507 50.8329 0.313507C51.7942 0.313507 51.837 0.376816 51.9367 1.94568C52.026 3.35026 52.4624 4.23507 55.0662 8.29069C57.3169 11.7963 58.3363 13.0955 59.0458 13.3626C60.1034 13.7609 60.3218 14.7613 59.4995 15.442C59.0633 15.8031 58.9996 19.0072 58.9996 40.5671V65.2783L58.2587 65.7959C57.6027 66.2542 54.3663 66.3135 29.9998 66.3135C5.63321 66.3135 2.39681 66.2542 1.74082 65.7959ZM19.3924 56.7543C19.4981 49.9693 19.5153 49.8236 20.4352 47.9551C23.6439 41.4373 32.3522 40.0222 37.5215 45.1785C39.6508 47.3024 40.6664 49.783 40.6664 52.86V55.0087H46.0216C51.5063 55.0087 52.6663 55.2313 52.6663 56.2839C52.6663 57.5341 52.0442 57.6687 46.2663 57.6687H40.6664V60.6611V63.6536H48.4996H56.3329V49.8551V36.0566H29.9998H3.66664V45.525V54.9934L9.54731 55.0842C14.7251 55.1641 15.4719 55.2445 15.7956 55.7568C16.0634 56.1809 16.0634 56.4965 15.7956 56.9206C15.4719 57.4329 14.7251 57.5133 9.54731 57.5932L3.66664 57.684V60.6688V63.6536H11.4758H19.2849L19.3924 56.7543ZM12.4166 48.8036C11.7575 48.5384 11.8678 45.3961 12.5452 45.1368C13.3815 44.8167 14.1553 45.4873 14.2699 46.6314C14.4461 48.3912 13.6654 49.3063 12.4166 48.8036ZM45.9914 48.3435C45.1555 46.7855 46.1376 44.6328 47.4543 45.1368C48.2177 45.429 48.2329 48.5309 47.4724 48.822C46.6269 49.1456 46.3787 49.0654 45.9914 48.3435ZM38.333 57.5442C38.333 50.9409 38.0801 49.5648 36.4819 47.4747C36.0209 46.8719 34.9364 45.9639 34.0718 45.4569C32.7312 44.6709 32.1316 44.5352 29.9998 44.5352C27.8679 44.5352 27.2683 44.6709 25.9278 45.4569C25.0632 45.9639 23.9786 46.8719 23.5177 47.4747C21.9195 49.5648 21.6665 50.9409 21.6665 57.5442V63.6536H29.9998H38.333V57.5442ZM14.3332 24.7518V15.7745H8.99993H3.66664V24.7518V33.7291H8.99993H14.3332V24.7518ZM8.13814 24.9639C8.04232 24.7149 8.00953 23.6301 8.06526 22.5534C8.15721 20.7772 8.24039 20.5852 8.96224 20.4834C9.39983 20.4217 9.88503 20.5713 10.0405 20.8159C10.4673 21.4877 10.3889 24.5633 9.93326 25.0178C9.39481 25.5549 8.35346 25.5236 8.13814 24.9639ZM37.5777 33.3135C34.8526 26.2336 30.155 14.777 29.977 14.777C29.7293 14.777 27.9998 18.8517 27.9998 19.4354C27.9998 19.6163 28.2147 19.7644 28.4773 19.7644C29.1326 19.7644 29.4785 21.0177 28.9865 21.6091C28.7656 21.8746 28.2199 22.0918 27.774 22.0918C27.1111 22.0918 26.8144 22.4273 26.1481 23.93C24.9487 26.6352 24.9805 26.7007 27.5483 26.8147C29.9933 26.9232 30.866 27.5343 30.023 28.5476C29.6881 28.9501 28.9376 29.0742 26.8386 29.0742H24.0923L23.4118 30.8198C23.0375 31.7799 22.6256 32.8272 22.4965 33.1473C22.277 33.6914 22.7631 33.7291 29.9998 33.7291C36.0532 33.7291 37.7029 33.6386 37.5777 33.3135ZM56.3329 24.7518V15.7745H50.9996H45.6663V24.7518V33.7291H50.9996H56.3329V24.7518ZM50.0791 25.0305C49.6136 24.5662 49.5262 21.4971 49.9591 20.8159C50.1145 20.5713 50.5997 20.4217 51.0373 20.4834C51.7894 20.5895 51.8329 20.7229 51.8329 22.9231C51.8329 25.0016 51.7612 25.2608 51.1624 25.3464C50.7936 25.3991 50.3061 25.257 50.0791 25.0305ZM12.8107 12.6989C11.8187 10.895 9.1295 6.79713 8.93776 6.79713C8.80639 6.79713 7.99546 7.88189 7.13571 9.20771C6.27596 10.5335 5.35144 11.9549 5.08124 12.3664L4.58996 13.1145H8.8146C12.094 13.1145 12.9881 13.0215 12.8107 12.6989ZM54.9183 12.3664C54.6481 11.9549 53.7236 10.5335 52.8638 9.20771C52.0041 7.88189 51.1932 6.79713 51.0618 6.79713C50.87 6.79713 48.1809 10.895 47.1889 12.6989C47.0114 13.0215 47.9055 13.1145 51.1849 13.1145H55.4096L54.9183 12.3664Z" fill="#F0F0F0"/>
</svg>
