<svg width="60" height="123" viewBox="0 0 60 123" fill="none" xmlns="http://www.w3.org/2000/svg">
<path d="M0.410243 121.903C0.184609 121.678 0 121.124 0 120.673C0 120.029 1.79481 119.852 8.3074 119.852H16.6148V112.775C16.6148 108.659 16.3674 105.699 16.0234 105.699C15.6981 105.699 14.8674 105.093 14.1773 104.352C11.8476 101.851 12.9987 94.6222 15.7266 94.6222C16.3845 94.6222 16.6148 93.8085 16.6148 91.4846C16.6148 88.7918 16.3531 88.1025 14.7687 86.6225C13.2614 85.2145 12.9226 84.4037 12.9226 82.205C12.9226 79.3489 14.2513 76.7767 15.7266 76.7767C16.2151 76.7767 16.6148 76.2228 16.6148 75.5459C16.6148 74.869 16.3379 74.3152 15.9994 74.3152C14.3348 74.3152 12.9226 71.7818 12.9226 68.7954C12.9226 66.1107 13.1482 65.5702 14.7687 64.3721C16.3993 63.1665 16.6148 62.6417 16.6148 59.8754C16.6148 55.8383 17.8436 54.0082 20.5542 54.0082C23.4016 54.0082 24.7621 55.7598 25.1024 59.8637C25.3817 63.2317 25.3866 63.2387 27.4598 63.2387H29.5374V45.9681C29.5374 28.7217 29.8021 26.3169 31.7006 26.3169C32.4427 26.3169 32.6172 24.1621 32.7558 13.2913C32.8802 3.5385 33.1152 0.20141 33.6911 0.00974241C34.2903 -0.189653 34.4603 2.6253 34.4603 12.7429V25.732L35.9146 26.2849C36.7145 26.589 37.5414 27.4822 37.7523 28.2696C37.9632 29.0571 38.1395 37.3451 38.1441 46.6874L38.1525 63.6734L41.1834 63.3822C43.8288 63.128 44.4158 63.2924 45.7986 64.6752C47.6682 66.5448 47.9844 70.7212 46.425 72.9476C45.6178 74.1 44.8915 74.3152 41.8098 74.3152C38.9691 74.3152 38.1525 74.5213 38.1525 75.2383C38.1525 75.9469 38.9388 76.1613 41.537 76.1613C46.023 76.1613 47.3829 77.4393 47.3829 81.6549C47.3829 85.7276 45.4202 87.4345 41.0829 87.1335L38.1517 86.9302L38.1521 90.6858L38.1525 94.4415L41.1834 94.1503C43.8288 93.8961 44.4158 94.0606 45.7986 95.4434C47.7943 97.4391 48.0078 101.714 46.2218 103.919C45.2439 105.127 44.5155 105.346 41.6066 105.304L38.1525 105.254V112.553V119.852H48.8188C54.6852 119.852 59.6673 120.034 59.89 120.257C60.1127 120.48 59.9865 121.034 59.6095 121.488C59.0539 122.157 53.4254 122.314 29.8723 122.314C13.8938 122.314 0.635875 122.129 0.410243 121.903ZM22.7684 112.775V105.699H20.6147H18.4609V112.365C18.4609 116.032 18.6455 119.216 18.8711 119.442C19.0968 119.667 20.066 119.852 21.0249 119.852H22.7684V112.775ZM29.5374 112.775V105.699H27.3836H25.2299V112.775V119.852H27.3836H29.5374V112.775ZM35.691 87.2378V54.6236H33.845H31.9989V59.8179C31.9989 62.6747 32.2758 65.1833 32.6142 65.3924C32.9527 65.6016 33.2296 67.2631 33.2296 69.0846C33.2296 70.9062 32.9527 72.5676 32.6142 72.7768C32.2758 72.986 31.9989 74.2321 31.9989 75.5459C31.9989 76.8598 32.2758 78.1059 32.6142 78.3151C32.9527 78.5242 33.2296 80.1857 33.2296 82.0072C33.2296 83.8288 32.9527 85.4902 32.6142 85.6994C32.2758 85.9086 31.9989 88.2624 31.9989 90.93C31.9989 93.5977 32.2758 95.9514 32.6142 96.1606C32.9527 96.3698 33.2296 98.0312 33.2296 99.8528C33.2296 101.674 32.9527 103.336 32.6142 103.545C32.2553 103.767 31.9989 107.244 31.9989 111.889V119.852H33.845H35.691V87.2378ZM30.4605 99.8528V96.776H23.0761H15.6918L15.4969 99.1483C15.1563 103.295 15.158 103.296 23.2182 103.103L30.4605 102.93V99.8528ZM44.6138 99.8528V96.776H41.8595C39.4192 96.776 39.0383 96.9661 38.5188 98.4434C38.1179 99.5833 38.1628 100.617 38.6606 101.709C39.3027 103.118 39.6983 103.285 42.0014 103.119L44.6138 102.93V99.8528ZM22.7684 90.5833V87.1599L20.7685 87.3527C18.8182 87.5407 18.7639 87.6257 18.5826 90.7762L18.3966 94.0068H20.5825H22.7684V90.5833ZM29.5374 90.5852V87.1635L27.2298 87.3545L24.9222 87.5455L24.7362 90.7762L24.5502 94.0068H27.0438H29.5374V90.5852ZM30.6465 82.1611L30.4605 78.9304H23.0761H15.6918L15.4969 81.3028C15.1609 85.3934 15.1578 85.3917 23.3966 85.3917H30.8325L30.6465 82.1611ZM44.6138 82.0072V78.9304L42.0381 78.7431C38.9344 78.5175 37.8044 79.9587 38.4378 83.3351C38.831 85.4308 38.8706 85.4542 41.7248 85.2702L44.6138 85.0841V82.0072ZM22.7684 75.5459C22.7684 74.5942 22.3582 74.3152 20.9586 74.3152C19.0669 74.3152 18.1206 75.1129 18.7686 76.1613C18.9777 76.4997 19.9633 76.7767 20.9586 76.7767C22.3582 76.7767 22.7684 76.4977 22.7684 75.5459ZM29.5374 75.5459C29.5374 74.5537 29.1272 74.3152 27.42 74.3152C26.2554 74.3152 25.1314 74.5921 24.9222 74.9306C24.2434 76.0288 25.2553 76.7767 27.42 76.7767C29.1272 76.7767 29.5374 76.5382 29.5374 75.5459ZM30.4605 69.0846V66.0078H23.0761H15.6918L15.4969 68.3801C15.1563 72.5271 15.158 72.528 23.2182 72.3349L30.4605 72.1614V69.0846ZM44.6138 69.0846V66.0078H41.8595C39.4192 66.0078 39.0383 66.1979 38.5188 67.6753C38.1179 68.8152 38.1628 69.8484 38.6606 70.9412C39.3027 72.3503 39.6983 72.5172 42.0014 72.3505L44.6138 72.1614V69.0846ZM22.6453 60.3157C22.4706 56.9661 22.3705 56.767 20.7685 56.5827C19.087 56.3892 19.0762 56.4116 19.0762 60.121V63.854H20.953H22.8298L22.6453 60.3157ZM35.691 40.4703V28.163H33.845H31.9989V40.4703V52.7775H33.845H35.691V40.4703Z" fill="#F0F0F0"/>
</svg>
