<svg width="32" height="32" viewBox="0 0 32 32" fill="none" xmlns="http://www.w3.org/2000/svg">
<path d="M16 7.38462C11.25 7.38462 7.38462 11.25 7.38462 16C7.38462 20.75 11.25 24.6154 16 24.6154C20.75 24.6154 24.6154 20.75 24.6154 16C24.6154 11.25 20.75 7.38462 16 7.38462ZM16 22.1538C12.6009 22.1538 9.84615 19.3991 9.84615 16C9.84615 12.6009 12.6009 9.84615 16 9.84615C19.3991 9.84615 22.1538 12.6009 22.1538 16C22.1538 19.3991 19.3991 22.1538 16 22.1538ZM16 4.92308C16.6795 4.92308 17.2308 4.37177 17.2308 3.69231V1.23077C17.2308 0.551308 16.6795 0 16 0C15.3205 0 14.7692 0.551308 14.7692 1.23077V3.69231C14.7692 4.37177 15.3205 4.92308 16 4.92308ZM16 27.0769C15.3205 27.0769 14.7692 27.6282 14.7692 28.3077V30.7692C14.7692 31.4487 15.3205 32 16 32C16.6795 32 17.2308 31.4487 17.2308 30.7692V28.3077C17.2308 27.6282 16.6795 27.0769 16 27.0769ZM25.5722 8.16669L27.3125 6.42631C27.7933 5.94554 27.7933 5.16669 27.3125 4.68592C26.8318 4.20515 26.0529 4.20515 25.5722 4.68592L23.8318 6.42631C23.351 6.90708 23.351 7.68592 23.8318 8.16669C24.3125 8.64746 25.0914 8.64746 25.5722 8.16669ZM6.42785 23.8334L4.68746 25.5738C4.20669 26.0545 4.20669 26.8333 4.68746 27.3141C5.16823 27.7948 5.94708 27.7948 6.42785 27.3141L8.16823 25.5738C8.649 25.0914 8.649 24.3141 8.16823 23.8334C7.68754 23.3525 6.90862 23.3509 6.42785 23.8334ZM4.92308 16C4.92308 15.3205 4.37177 14.7692 3.69231 14.7692H1.23077C0.551308 14.7692 0 15.3205 0 16C0 16.6795 0.551308 17.2308 1.23077 17.2308H3.69231C4.37177 17.2308 4.92308 16.6795 4.92308 16ZM30.7692 14.7692H28.3077C27.6282 14.7692 27.0769 15.3205 27.0769 16C27.0769 16.6795 27.6282 17.2308 28.3077 17.2308H30.7692C31.4487 17.2308 32 16.6795 32 16C32 15.3205 31.4487 14.7692 30.7692 14.7692ZM6.42623 8.16669C6.90708 8.64746 7.68592 8.64746 8.16662 8.16669C8.64746 7.68592 8.64746 6.90708 8.16662 6.42631L6.42623 4.68592C5.94546 4.20515 5.16669 4.20515 4.68585 4.68592C4.20508 5.16669 4.20508 5.94554 4.68585 6.42631L6.42623 8.16669ZM25.5738 23.8317C25.0914 23.3509 24.3141 23.3509 23.8334 23.8317C23.3525 24.3125 23.351 25.0913 23.8334 25.5721L25.5738 27.3125C26.0545 27.7932 26.8333 27.7932 27.3141 27.3125C27.7948 26.8317 27.7948 26.0528 27.3141 25.5721L25.5738 23.8317Z" fill="#FFFF00"/>
</svg>
