<svg width="30" height="30" viewBox="0 0 30 30" fill="none" xmlns="http://www.w3.org/2000/svg">
<path d="M21.7014 9.97847C21.7014 11.5292 21.3276 12.9831 20.5799 14.34C19.8599 15.6969 18.7106 16.7908 17.1322 17.6215C15.5814 18.4523 13.6153 18.8677 11.2337 18.8677H6.37371V30H0.558319V1.00616H11.2337C13.4768 1.00616 15.3876 1.39386 16.966 2.16924C18.5445 2.94463 19.7214 4.01078 20.4968 5.3677C21.2999 6.72463 21.7014 8.26155 21.7014 9.97847ZM10.9845 14.1738C12.5906 14.1738 13.7814 13.8138 14.5568 13.0938C15.3322 12.3462 15.7199 11.3077 15.7199 9.97847C15.7199 7.15386 14.1414 5.74155 10.9845 5.74155H6.37371V14.1738H10.9845Z" fill="#E6E6E6"/>
<path fill-rule="evenodd" clip-rule="evenodd" d="M27.6419 13.7911L27.6463 13.7832C28.2998 12.597 28.6245 11.3347 28.6245 9.97847C28.6245 8.44934 28.2692 7.11871 27.5807 5.95538L27.5762 5.94781L27.572 5.94017C26.9249 4.80794 25.9326 3.89181 24.5342 3.20488C23.1516 2.52567 21.4245 2.16001 19.3107 2.16001H9.78913V28.8462H13.2968V17.7138H19.3107C21.5663 17.7138 23.3299 17.3193 24.6643 16.6044L24.6717 16.6005C26.0789 15.8598 27.0429 14.9197 27.6376 13.7992L27.6419 13.7911ZM28.5737 5.3677C27.7984 4.01078 26.6214 2.94463 25.043 2.16924C23.4645 1.39386 21.5537 1.00616 19.3107 1.00616H8.63528V30H14.4507V18.8677H19.3107C21.6922 18.8677 23.6584 18.4523 25.2091 17.6215C26.7876 16.7908 27.9368 15.6969 28.6568 14.34C29.4045 12.9831 29.7784 11.5292 29.7784 9.97847C29.7784 8.26155 29.3768 6.72463 28.5737 5.3677ZM23.4269 13.932L23.4189 13.9394C22.3426 14.9388 20.8121 15.3277 19.0614 15.3277H13.2968V4.5877H19.0614C20.7881 4.5877 22.2986 4.97114 23.3824 5.94089C24.4906 6.93249 24.9507 8.35306 24.9507 9.97847C24.9507 11.5427 24.4862 12.9104 23.4346 13.9245L23.4269 13.932ZM14.4507 14.1738H19.0614C20.6676 14.1738 21.8584 13.8138 22.6337 13.0938C23.4091 12.3462 23.7968 11.3077 23.7968 9.97847C23.7968 7.15386 22.2184 5.74155 19.0614 5.74155H14.4507V14.1738Z" fill="#E6E6E6"/>
</svg>
