<svg width="18" height="21" viewBox="0 0 18 21" fill="none" xmlns="http://www.w3.org/2000/svg">
<path d="M14.9709 12.9526L15.1672 13.1323C15.226 13.1892 15.2774 13.2421 15.3157 13.2905C15.3369 13.3174 15.3669 13.3586 15.3928 13.4097C15.4134 13.4501 15.4649 13.5606 15.4514 13.7065C15.4335 13.9007 15.3133 14.0477 15.1692 14.1206C15.0594 14.1761 14.9571 14.1792 14.9172 14.1792C14.7975 14.1791 14.7105 14.1353 14.6926 14.1265C14.6603 14.1106 14.6348 14.0947 14.6213 14.0854C14.5933 14.0662 14.5699 14.0456 14.5549 14.0327C14.5229 14.0051 14.4884 13.972 14.4563 13.9399L14.2278 13.6948L13.9504 13.3804L14.6565 12.6753L14.9709 12.9526ZM13.0129 6.36084C13.1747 6.38543 13.2735 6.47856 13.3118 6.51904C13.3503 6.5598 13.3792 6.60309 13.3997 6.64014L13.4387 6.72314L13.4661 6.80518C13.4893 6.8879 13.4997 6.97368 13.4963 7.05615C13.4932 7.1331 13.4747 7.28649 13.3694 7.42432L13.3186 7.48193C13.2482 7.55229 13.0405 7.70804 12.7659 7.60693C12.5505 7.52747 12.4727 7.3443 12.4543 7.29834C12.4037 7.17167 12.4022 7.03899 12.4055 6.95752L12.4221 6.80225C12.4274 6.77502 12.437 6.73634 12.4534 6.69385C12.4672 6.65809 12.5009 6.58003 12.5745 6.50635C12.6624 6.4184 12.8177 6.33127 13.0129 6.36084ZM13.1116 6.66846C12.9174 6.59705 12.7622 6.66375 12.675 6.72314L12.6116 6.7749C12.5498 6.83668 12.5231 6.90012 12.512 6.93408C12.5001 6.97033 12.497 6.99899 12.4963 7.01514C12.4957 7.0303 12.497 7.0441 12.4993 7.05713L12.51 7.09521C12.5109 7.09743 12.5151 7.10676 12.5227 7.12061C12.5293 7.13265 12.5487 7.16792 12.5852 7.20654C12.6157 7.23882 12.7077 7.32655 12.8625 7.3501C13.0507 7.37859 13.1995 7.29524 13.2815 7.21338C13.3493 7.14552 13.3772 7.07598 13.386 7.05322C13.396 7.02731 13.4006 7.00709 13.4026 6.99756C13.4003 6.98243 13.3953 6.95787 13.3831 6.92725C13.3755 6.90847 13.3116 6.7421 13.1116 6.66846ZM12.9055 6.97803C12.911 6.84511 12.9375 6.81797 12.9739 6.90869L12.9924 6.97314C13.0033 7.03737 12.9935 7.09997 12.9651 7.12842L12.9514 7.13818C12.9297 7.14571 12.9136 7.11449 12.9075 7.05811L12.9055 6.97803ZM9.01782 2.44189C9.09465 2.44506 9.24814 2.46272 9.38599 2.56787L9.4436 2.61865L9.50708 2.6958C9.57596 2.79663 9.64456 2.96511 9.5686 3.17139C9.48932 3.38627 9.30747 3.46429 9.26099 3.48291C9.19773 3.50822 9.13258 3.52142 9.07349 3.52783L8.91919 3.53174C8.8733 3.52983 8.81839 3.52579 8.76392 3.51514C8.73675 3.50981 8.69872 3.50013 8.65649 3.48389C8.62084 3.47017 8.54197 3.43675 8.46802 3.36279C8.38015 3.27489 8.2941 3.12032 8.32349 2.92529C8.34798 2.7635 8.44015 2.6639 8.48071 2.62549C8.56182 2.5488 8.65391 2.51227 8.68579 2.49951L8.76685 2.47119C8.84961 2.44794 8.9353 2.43852 9.01782 2.44189ZM8.96021 2.53662C8.94506 2.53889 8.91986 2.54182 8.88892 2.5542C8.8699 2.5618 8.70471 2.62592 8.6311 2.82568C8.55964 3.01977 8.62545 3.17498 8.68481 3.26221L8.73657 3.32568C8.79831 3.38742 8.86176 3.41413 8.89575 3.42529C8.9321 3.43722 8.9606 3.44025 8.97681 3.44092C8.99197 3.44154 9.00577 3.44019 9.0188 3.43799L9.05688 3.42725C9.05847 3.42661 9.06853 3.42264 9.08325 3.41455C9.09546 3.40784 9.12979 3.38838 9.16821 3.35205C9.20041 3.3216 9.28823 3.22983 9.31177 3.07471C9.34028 2.88639 9.25698 2.73769 9.17505 2.65576C9.10713 2.58787 9.03756 2.55999 9.01489 2.55127C8.98994 2.54169 8.97004 2.53871 8.96021 2.53662ZM8.87134 2.96338C8.95373 2.93046 9.05196 2.93437 9.09009 2.97217L9.09985 2.98584C9.11092 3.01643 9.04603 3.03699 8.94067 3.03271L8.89673 3.02783C8.82931 3.02122 8.80407 3.00823 8.82446 2.98877L8.87134 2.96338Z" fill="#3A3F45" stroke="#F0F0F0"/>
<path d="M9.0177 10.4482C9.09455 10.4514 9.24798 10.47 9.38586 10.5752L9.44348 10.626L9.50696 10.7031C9.57574 10.8039 9.64514 10.9718 9.56946 11.1777C9.49025 11.3928 9.3074 11.4706 9.26086 11.4893C9.19757 11.5146 9.13249 11.5278 9.07336 11.5342L8.92004 11.5391C8.87413 11.5372 8.81935 11.5321 8.76477 11.5215C8.73758 11.5162 8.69883 11.5075 8.65637 11.4912C8.62074 11.4775 8.54183 11.444 8.4679 11.3701C8.37995 11.2822 8.29379 11.1269 8.32336 10.9316C8.34794 10.7695 8.44116 10.67 8.48157 10.6318C8.56258 10.5554 8.65384 10.5186 8.68567 10.5059L8.76672 10.4785C8.84951 10.4552 8.93515 10.4449 9.0177 10.4482ZM8.95911 10.542C8.94389 10.5443 8.91912 10.5494 8.88879 10.5615C8.86833 10.5697 8.70426 10.6336 8.63098 10.832C8.55933 11.0266 8.62619 11.1824 8.68567 11.2695L8.73645 11.333C8.79817 11.3947 8.86163 11.4215 8.89563 11.4326C8.93182 11.4445 8.96045 11.4466 8.97668 11.4473C8.99212 11.4479 9.00642 11.4476 9.01965 11.4453L9.05676 11.4346C9.05801 11.4341 9.06817 11.4301 9.08313 11.4219C9.09517 11.4153 9.12947 11.3949 9.16809 11.3584C9.20043 11.3278 9.28915 11.236 9.31262 11.0811C9.34093 10.893 9.25676 10.745 9.17493 10.6631C9.10721 10.5954 9.03864 10.5664 9.01575 10.5576C8.98939 10.5475 8.96843 10.5439 8.95911 10.542ZM8.87122 10.9697C8.95372 10.9368 9.05195 10.9416 9.08997 10.9795L9.09973 10.9932C9.11015 11.0236 9.0456 11.0434 8.94055 11.0391L8.89661 11.0342C8.82919 11.0275 8.80369 11.0146 8.82434 10.9951L8.87122 10.9697ZM5.00598 6.36133C5.16741 6.38587 5.26634 6.47795 5.30481 6.51855C5.34324 6.5592 5.37229 6.60267 5.3927 6.63965L5.43176 6.72363L5.45911 6.80469C5.48236 6.88746 5.49276 6.97313 5.48938 7.05566C5.48621 7.13251 5.46766 7.28595 5.36243 7.42383L5.31165 7.48145C5.24134 7.55175 5.03366 7.70761 4.75891 7.60645C4.54458 7.52726 4.46716 7.3457 4.44836 7.29883C4.39764 7.17208 4.3952 7.03855 4.39856 6.95703L4.41516 6.80176C4.42049 6.77461 4.43018 6.73655 4.44641 6.69434C4.46013 6.65869 4.49359 6.5798 4.5675 6.50586C4.65545 6.41791 4.81073 6.33176 5.00598 6.36133ZM5.10461 6.66895C4.91044 6.5975 4.75527 6.66328 4.66809 6.72266L4.60461 6.77441C4.54283 6.8362 4.51615 6.89962 4.505 6.93359C4.49308 6.96995 4.49005 6.99845 4.48938 7.01465C4.48876 7.0298 4.49011 7.04363 4.49231 7.05664L4.50305 7.09473C4.50356 7.096 4.5075 7.10607 4.51575 7.12109C4.52239 7.13319 4.54189 7.16757 4.57825 7.20605C4.60868 7.23824 4.70061 7.32601 4.85559 7.34961C5.04386 7.37812 5.19259 7.2948 5.27454 7.21289C5.34248 7.14495 5.3703 7.0754 5.37903 7.05273C5.389 7.02678 5.39269 7.00651 5.39465 6.99707C5.39231 6.98186 5.38825 6.95712 5.3761 6.92676C5.36833 6.90732 5.30416 6.74242 5.10461 6.66895ZM4.89856 6.97852C4.90405 6.84526 4.9304 6.81793 4.96692 6.90918L4.98547 6.97266C4.99648 7.03696 4.98658 7.09939 4.95813 7.12793L4.94446 7.1377C4.92267 7.14533 4.90657 7.11431 4.90051 7.05762L4.89856 6.97852Z" fill="#3A3F45" stroke="#F0F0F0"/>
<path d="M2.60388 17.915C2.76551 17.9396 2.86436 18.0318 2.90271 18.0723C2.94123 18.113 2.97018 18.1563 2.9906 18.1934L3.02966 18.2764L3.05701 18.3584C3.08022 18.4412 3.09068 18.5269 3.08728 18.6094C3.0841 18.6863 3.06565 18.8397 2.96033 18.9775L2.90955 19.0352C2.83915 19.1055 2.63144 19.2613 2.35681 19.1602C2.14153 19.0807 2.06466 18.8975 2.04626 18.8516C1.99554 18.7248 1.9931 18.5923 1.99646 18.5107L2.01306 18.3555C2.01839 18.3282 2.02797 18.2895 2.04431 18.2471C2.0581 18.2113 2.09184 18.1332 2.16541 18.0596C2.25335 17.9716 2.40863 17.8855 2.60388 17.915ZM15.4144 17.7998C15.5766 17.8244 15.676 17.9176 15.7142 17.958C15.7524 17.9984 15.7808 18.0413 15.8011 18.0781L15.8402 18.1621L15.8685 18.2441C15.8917 18.3268 15.9012 18.4127 15.8978 18.4951C15.8946 18.5721 15.877 18.7255 15.7719 18.8633L15.7211 18.9209C15.6508 18.9912 15.4431 19.147 15.1683 19.0459C14.9528 18.9665 14.8752 18.7833 14.8568 18.7373C14.8061 18.6106 14.8046 18.478 14.808 18.3965L14.8246 18.2412C14.8299 18.214 14.8385 18.1753 14.8549 18.1328C14.8686 18.0971 14.903 18.0183 14.9769 17.9443C15.0649 17.8566 15.2196 17.7704 15.4144 17.7998ZM2.70251 18.2217C2.50833 18.1503 2.35311 18.217 2.26599 18.2764L2.20251 18.3281C2.14078 18.3899 2.11404 18.4533 2.10291 18.4873C2.09105 18.5236 2.08795 18.5522 2.08728 18.5684C2.08667 18.5835 2.08799 18.5973 2.09021 18.6104L2.10095 18.6484C2.10179 18.6505 2.10584 18.6606 2.11365 18.6748C2.12043 18.6871 2.13995 18.7215 2.17615 18.7598C2.20661 18.792 2.29854 18.8797 2.45349 18.9033C2.64164 18.9318 2.79046 18.8485 2.87244 18.7666C2.94033 18.6987 2.96818 18.6292 2.97693 18.6064C2.98726 18.5796 2.99167 18.5589 2.99353 18.5498C2.99115 18.5346 2.98598 18.5104 2.974 18.4805C2.96649 18.4617 2.90255 18.2953 2.70251 18.2217ZM15.514 18.1074C15.3199 18.0359 15.1647 18.1027 15.0775 18.1621L15.014 18.2139C14.9522 18.2757 14.9256 18.3391 14.9144 18.373C14.9026 18.4093 14.8995 18.4379 14.8988 18.4541C14.8982 18.4693 14.8995 18.483 14.9017 18.4961L14.9125 18.5342C14.9135 18.5367 14.9177 18.5459 14.9252 18.5596C14.9318 18.5716 14.9512 18.6069 14.9877 18.6455C15.0184 18.678 15.1103 18.7656 15.265 18.7891C15.4532 18.8175 15.602 18.7342 15.684 18.6523C15.7519 18.5844 15.7797 18.5149 15.7885 18.4922C15.798 18.4673 15.802 18.4474 15.8041 18.4375C15.8019 18.4225 15.798 18.3974 15.7855 18.3662C15.778 18.3474 15.714 18.1811 15.514 18.1074ZM2.49646 18.5312C2.50196 18.3984 2.52842 18.3713 2.56482 18.4619L2.58337 18.5264C2.5943 18.5906 2.58449 18.6532 2.55603 18.6816L2.54236 18.6914C2.52066 18.6989 2.50449 18.6677 2.49841 18.6113L2.49646 18.5312ZM15.307 18.417C15.3125 18.2839 15.3399 18.2567 15.3763 18.3477L15.3939 18.4121C15.4048 18.4763 15.396 18.5389 15.3676 18.5674L15.3539 18.5762C15.3319 18.5845 15.3151 18.554 15.309 18.4971L15.307 18.417ZM4.35486 14.0957C4.43568 14.1021 4.562 14.133 4.67029 14.2412C4.77867 14.3496 4.81043 14.4767 4.81677 14.5576C4.82266 14.6336 4.80984 14.6937 4.80212 14.7236C4.78682 14.7829 4.76322 14.8268 4.75525 14.8418C4.73602 14.8778 4.71403 14.909 4.70349 14.9238L4.61072 15.0459C4.53441 15.1432 4.42963 15.2661 4.31091 15.3428C4.277 15.3646 4.22085 15.3973 4.14783 15.418C4.07591 15.4383 3.9457 15.4587 3.80115 15.3994C3.55797 15.2994 3.49579 15.0892 3.47986 14.9727L3.474 14.8945L3.48279 14.8018C3.49846 14.7171 3.53097 14.659 3.53943 14.6436C3.55956 14.6067 3.58045 14.5772 3.59412 14.5596C3.62236 14.5231 3.65367 14.4903 3.67908 14.4648C3.73219 14.4117 3.79801 14.3538 3.8656 14.3008L3.98865 14.208C4.0036 14.1974 4.03391 14.1754 4.0697 14.1562C4.08449 14.1484 4.12851 14.1257 4.18787 14.1104C4.21778 14.1026 4.27841 14.0897 4.35486 14.0957ZM4.18103 14.4746C4.04747 14.4197 3.93109 14.4393 3.87537 14.4551C3.85974 14.4595 3.84593 14.4657 3.83337 14.4707V14.4736C3.82617 14.5015 3.81381 14.5607 3.8197 14.6357C3.826 14.7152 3.85594 14.8408 3.96326 14.9482C4.0709 15.0559 4.19724 15.0865 4.27673 15.0928C4.35001 15.0985 4.40733 15.0854 4.43591 15.0781C4.4392 15.0702 4.44439 15.0621 4.44763 15.0527C4.4577 15.0236 4.474 14.9675 4.474 14.8945C4.47399 14.8718 4.47193 14.8094 4.4408 14.7334C4.40543 14.6471 4.32657 14.5345 4.18103 14.4746ZM3.40466 6.01855C3.56659 6.0432 3.6653 6.13637 3.70349 6.17676C3.74172 6.2172 3.77003 6.26003 3.79041 6.29688L3.83044 6.38086L3.85779 6.46191C3.88105 6.54467 3.89142 6.63036 3.88806 6.71289C3.88541 6.77732 3.87028 6.89494 3.80408 7.0127L3.83044 7.06641L3.85779 7.14844C3.88103 7.23121 3.89145 7.31689 3.88806 7.39941C3.8849 7.47626 3.86635 7.6297 3.76111 7.76758L3.71033 7.8252C3.64002 7.8955 3.43234 8.05136 3.15759 7.9502C2.9423 7.87071 2.86446 7.68755 2.84607 7.6416C2.79554 7.51501 2.79389 7.38219 2.79724 7.30078L2.81384 7.14551C2.81917 7.11836 2.82886 7.08032 2.84509 7.03809C2.8492 7.02741 2.85639 7.0132 2.86462 6.99609C2.85609 6.97871 2.84964 6.96498 2.84607 6.95605C2.79543 6.82951 2.79391 6.69679 2.79724 6.61523L2.81384 6.45996C2.81916 6.43275 2.82875 6.39405 2.84509 6.35156C2.85881 6.31591 2.89223 6.23704 2.96619 6.16309C3.05414 6.07516 3.20944 5.98899 3.40466 6.01855ZM3.69763 7.14844C3.64229 7.20001 3.52964 7.2815 3.37732 7.29395C3.39504 7.36581 3.38863 7.43977 3.35681 7.47168L3.34314 7.48145C3.32134 7.48914 3.30527 7.45804 3.29919 7.40137L3.29724 7.32129C3.29766 7.31123 3.29853 7.30181 3.29919 7.29297C3.25463 7.2894 3.2069 7.2828 3.15759 7.26465C3.08002 7.23605 3.02045 7.19364 2.97498 7.14941C2.93297 7.20051 2.91296 7.24908 2.90369 7.27734C2.89176 7.31371 2.88873 7.34221 2.88806 7.3584C2.88744 7.37357 2.88878 7.38736 2.89099 7.40039L2.90173 7.43848C2.90239 7.44012 2.90637 7.45018 2.91443 7.46484C2.92113 7.47704 2.94062 7.5114 2.97693 7.5498C3.00737 7.582 3.09924 7.66978 3.25427 7.69336C3.44254 7.72187 3.59127 7.63855 3.67322 7.55664C3.74116 7.4887 3.76898 7.41915 3.77771 7.39648C3.78767 7.37057 3.79136 7.35029 3.79333 7.34082C3.791 7.32562 3.78696 7.30094 3.77478 7.27051C3.77065 7.26017 3.74829 7.20739 3.69763 7.14844ZM14.6136 5.9043C14.7755 5.9288 14.8751 6.02097 14.9135 6.06152C14.9518 6.10206 14.98 6.1457 15.0004 6.18262L15.0394 6.2666L15.0677 6.34766C15.091 6.43041 15.1004 6.51612 15.097 6.59863C15.0939 6.67545 15.0762 6.82895 14.9711 6.9668L14.9203 7.02441C14.85 7.09473 14.6423 7.25152 14.3676 7.15039C14.1524 7.07119 14.0747 6.88832 14.056 6.8418C14.0053 6.71504 14.0038 6.58153 14.0072 6.5L14.0238 6.34473C14.0291 6.31763 14.0379 6.2794 14.0541 6.2373C14.0678 6.20166 14.1022 6.12278 14.1761 6.04883C14.2641 5.96097 14.4186 5.87488 14.6136 5.9043ZM3.44275 6.99512C3.35807 6.9751 3.28255 6.97983 3.21814 6.99707C3.22998 6.9998 3.24158 7.00491 3.25427 7.00684C3.3231 7.01726 3.38588 7.0091 3.44275 6.99512ZM14.7133 6.21191C14.5192 6.14047 14.364 6.20627 14.2767 6.26562L14.2133 6.31738C14.1515 6.3791 14.1248 6.44256 14.1136 6.47656C14.1017 6.5129 14.0987 6.54141 14.098 6.55762C14.0974 6.57278 14.0987 6.58658 14.101 6.59961L14.1117 6.6377C14.1124 6.63936 14.1164 6.64943 14.1244 6.66406C14.1311 6.6763 14.1506 6.71064 14.1869 6.74902C14.2174 6.78125 14.3091 6.86906 14.4642 6.89258C14.6526 6.9211 14.8012 6.83779 14.8832 6.75586C14.9511 6.68795 14.979 6.61836 14.9877 6.5957C14.997 6.57136 15.0011 6.55204 15.0033 6.54199C15.0011 6.52696 14.9974 6.50145 14.9847 6.46973C14.9772 6.45091 14.9131 6.28558 14.7133 6.21191ZM3.5033 6.32617C3.3092 6.25473 3.15398 6.32052 3.06677 6.37988L3.0033 6.43164C2.9416 6.49334 2.91486 6.55681 2.90369 6.59082C2.89179 6.62708 2.88874 6.65565 2.88806 6.67188C2.88742 6.68735 2.88869 6.70158 2.89099 6.71484L2.90173 6.75195C2.90223 6.7532 2.90617 6.76328 2.91443 6.77832C2.92026 6.78894 2.93752 6.81573 2.96619 6.84863C3.03757 6.77743 3.15323 6.70834 3.29822 6.7002L3.29724 6.63574C3.30273 6.50249 3.32909 6.47517 3.3656 6.56641L3.38416 6.62988C3.3885 6.65523 3.38802 6.68029 3.38611 6.70312C3.39209 6.70382 3.3986 6.70416 3.40466 6.70508C3.55031 6.72725 3.64446 6.80492 3.68982 6.84961C3.74431 6.78872 3.76963 6.73189 3.77771 6.71094C3.78779 6.68474 3.79138 6.6637 3.79333 6.6543C3.79098 6.63908 3.7869 6.61428 3.77478 6.58398C3.76687 6.56419 3.70258 6.39955 3.5033 6.32617ZM14.5062 6.52148C14.5117 6.38823 14.539 6.3609 14.5756 6.45215L14.5931 6.51562C14.6042 6.57985 14.5951 6.64227 14.5668 6.6709L14.5531 6.68066C14.5312 6.68866 14.5143 6.65756 14.5082 6.60059L14.5062 6.52148ZM3.974 14.8945C3.97433 14.871 4.06116 14.784 4.16833 14.6992L4.17419 14.6943C4.35552 14.5521 4.35934 14.556 4.21716 14.7373L4.21228 14.7422C4.08373 14.9051 3.99764 14.9714 3.97791 14.9229L3.974 14.8945Z" fill="#3A3F45" stroke="#F0F0F0"/>
<path d="M14.1975 6.94336C14.2236 6.91614 14.2597 6.88553 14.3069 6.8584C14.4116 6.79816 14.5596 6.76613 14.7141 6.81934C14.8457 6.86468 14.9194 6.95054 14.9495 6.99121C14.9626 7.00906 14.9706 7.02843 14.9797 7.04492C14.9706 7.06144 14.9627 7.08075 14.9495 7.09863C14.9195 7.13926 14.8458 7.22514 14.7141 7.27051C14.5597 7.32369 14.4116 7.29255 14.3069 7.23242C14.219 7.18188 14.17 7.11752 14.1506 7.08984C14.1392 7.07346 14.1312 7.0577 14.1243 7.04492C14.1312 7.03218 14.1392 7.01632 14.1506 7C14.1596 6.98717 14.1751 6.96677 14.1975 6.94336ZM14.1975 6.94336L14.5344 6.85547M14.1975 6.94336L14.5344 6.85547M14.5344 6.85547C14.5439 6.78557 14.5585 6.77619 14.5764 6.84473L14.592 6.93848C14.6028 7.0407 14.598 7.16257 14.5764 7.24512L14.5559 7.29102C14.5434 7.29846 14.5339 7.26018 14.5286 7.18457L14.5237 7.04492C14.5237 6.962 14.5287 6.89773 14.5344 6.85547ZM9.01782 12.0498C9.09468 12.053 9.24808 12.0715 9.38599 12.1768L9.4436 12.2275L9.50708 12.3047C9.57584 12.4055 9.64519 12.5734 9.56958 12.7793C9.49047 12.9941 9.30779 13.0721 9.26099 13.0908C9.19775 13.1161 9.13257 13.1293 9.07349 13.1357L8.91919 13.1406C8.87346 13.1387 8.81918 13.1346 8.76489 13.124C8.73773 13.1187 8.69891 13.1091 8.65649 13.0928C8.62087 13.0791 8.54194 13.0455 8.46802 12.9717C8.38007 12.8837 8.29391 12.7285 8.32349 12.5332C8.34807 12.3711 8.4403 12.2716 8.48071 12.2334C8.56182 12.1567 8.65392 12.1202 8.68579 12.1074L8.76685 12.0801C8.84964 12.0568 8.93527 12.0464 9.01782 12.0498ZM8.95923 12.1436C8.94403 12.1459 8.91936 12.1509 8.88892 12.1631C8.8692 12.171 8.7045 12.2352 8.6311 12.4346C8.55972 12.6288 8.62543 12.784 8.68481 12.8711L8.73657 12.9346C8.79837 12.9964 8.86178 13.023 8.89575 13.0342C8.93207 13.0461 8.9606 13.0482 8.97681 13.0488C8.99194 13.0495 9.0058 13.0491 9.0188 13.0469L9.05688 13.0361C9.05813 13.0356 9.06822 13.0317 9.08325 13.0234C9.09528 13.0168 9.12969 12.9973 9.16821 12.9609C9.20042 12.9305 9.28826 12.8379 9.31177 12.6826C9.3401 12.4946 9.25688 12.3466 9.17505 12.2646C9.1071 12.1967 9.03756 12.1679 9.01489 12.1592C8.98892 12.1492 8.96857 12.1455 8.95923 12.1436ZM8.87134 12.5713C8.95384 12.5384 9.05213 12.5431 9.09009 12.5811L9.09985 12.5947C9.11025 12.6251 9.04562 12.6449 8.94067 12.6406L8.89673 12.6357C8.82906 12.6291 8.80358 12.6163 8.82446 12.5967L8.87134 12.5713ZM14.3889 6.3252C14.5461 6.27118 14.6972 6.30335 14.8049 6.36523C14.896 6.4176 14.9484 6.48524 14.9709 6.51758C14.9966 6.55441 15.0131 6.5879 15.0227 6.60938L15.0598 6.71875L15.0901 6.88574C15.096 6.94135 15.0979 6.9956 15.0979 7.04492C15.0979 7.09421 15.096 7.14852 15.0901 7.2041L15.0598 7.37207C15.053 7.39801 15.0416 7.43785 15.0227 7.48047C15.0132 7.50191 14.9966 7.5354 14.9709 7.57227C14.9484 7.60461 14.896 7.67224 14.8049 7.72461C14.6972 7.78653 14.5462 7.81871 14.3889 7.76465C14.2543 7.71825 14.1775 7.62937 14.1448 7.58496C14.0829 7.50101 14.0615 7.41681 14.0559 7.39551C14.0281 7.28896 14.0237 7.15047 14.0237 7.04492C14.0237 6.93939 14.0281 6.80085 14.0559 6.69434C14.0615 6.67275 14.083 6.58865 14.1448 6.50488C14.1775 6.46048 14.2543 6.37159 14.3889 6.3252ZM3.40454 6.36133C3.56652 6.38595 3.66516 6.47913 3.70337 6.51953C3.74174 6.56011 3.77085 6.60271 3.79126 6.63965L3.83032 6.72363L3.85767 6.80469C3.88095 6.88745 3.89129 6.97313 3.88794 7.05566C3.88478 7.13249 3.86613 7.28599 3.76099 7.42383L3.71021 7.48242C3.63961 7.55287 3.43182 7.70844 3.15747 7.60742C2.94265 7.52818 2.86558 7.3454 2.84692 7.29883C2.79627 7.17223 2.79378 7.03955 2.79712 6.95801L2.81372 6.80273C2.81904 6.77552 2.82861 6.73684 2.84497 6.69434C2.85869 6.65868 2.89211 6.57982 2.96606 6.50586C3.05402 6.41793 3.20933 6.33177 3.40454 6.36133ZM3.50317 6.66895C3.30878 6.59745 3.15375 6.6642 3.06665 6.72363L3.00317 6.77441C2.94151 6.83607 2.91475 6.89957 2.90356 6.93359C2.89169 6.96979 2.88863 6.99841 2.88794 7.01465C2.8873 7.03008 2.88858 7.04439 2.89087 7.05762L2.90161 7.09473C2.90211 7.09598 2.90608 7.10611 2.91431 7.12109C2.92091 7.13311 2.94045 7.16754 2.97681 7.20605C3.00725 7.23825 3.09911 7.32701 3.25415 7.35059C3.44247 7.3791 3.59116 7.29482 3.6731 7.21289C3.74059 7.14538 3.76868 7.0768 3.77759 7.05371C3.7877 7.02744 3.79127 7.00644 3.79321 6.99707C3.79085 6.98184 3.78675 6.95698 3.77466 6.92676C3.76655 6.90644 3.70207 6.74218 3.50317 6.66895ZM3.29712 6.97852C3.3026 6.84532 3.32899 6.81808 3.36548 6.90918L3.38403 6.97266C3.3951 7.03709 3.38523 7.10037 3.35669 7.12891L3.34302 7.1377C3.32116 7.14543 3.30512 7.11451 3.29907 7.05762L3.29712 6.97852Z" fill="#3A3F45" stroke="#F0F0F0"/>
<path d="M17.0157 18.1431C17.1779 18.1676 17.2773 18.2608 17.3156 18.3013C17.3537 18.3417 17.3821 18.3846 17.4025 18.4214L17.4415 18.5054L17.4698 18.5864C17.4931 18.6692 17.5025 18.7549 17.4991 18.8374C17.496 18.9142 17.4782 19.0678 17.3732 19.2056L17.3224 19.2632C17.2521 19.3335 17.0444 19.4903 16.7697 19.3892C16.5544 19.3099 16.4767 19.1269 16.4581 19.0806C16.4075 18.954 16.406 18.8213 16.4093 18.7397L16.4259 18.5845C16.4312 18.5573 16.4399 18.5185 16.4562 18.4761C16.4699 18.4404 16.5043 18.3616 16.5782 18.2876C16.6662 18.1998 16.8208 18.1136 17.0157 18.1431ZM17.1154 18.4507C16.9214 18.3793 16.7661 18.4451 16.6788 18.5044L16.6154 18.5562C16.5537 18.6178 16.5269 18.6813 16.5157 18.7153C16.5039 18.7516 16.5008 18.7802 16.5001 18.7964C16.4995 18.8119 16.5007 18.8261 16.5031 18.8394L16.5138 18.8765C16.5143 18.8778 16.5183 18.8879 16.5265 18.9028C16.5332 18.915 16.5526 18.9493 16.589 18.9878C16.6194 19.02 16.7111 19.1088 16.8663 19.1323C17.0546 19.1608 17.2034 19.0765 17.2853 18.9946C17.3527 18.9271 17.3809 18.8585 17.3898 18.8354C17.3993 18.8108 17.4032 18.7908 17.4054 18.7808C17.4032 18.7657 17.3995 18.7401 17.3868 18.7085C17.3791 18.6892 17.3148 18.5242 17.1154 18.4507ZM16.9083 18.7603C16.9138 18.627 16.9411 18.5997 16.9777 18.6909L16.9952 18.7544C17.0063 18.8186 16.9971 18.881 16.9689 18.9097L16.9552 18.9194C16.9332 18.9276 16.9164 18.8965 16.9103 18.8394L16.9083 18.7603ZM8.99915 0.840332C9.06545 0.841151 9.15504 0.847673 9.24719 0.871582L9.33997 0.901855L9.40051 0.930176C9.42602 0.943855 9.45562 0.961986 9.48547 0.98584C9.52879 1.0205 9.70142 1.17106 9.67786 1.43213C9.65497 1.68449 9.46818 1.80167 9.4259 1.82666C9.36293 1.86383 9.30432 1.88093 9.27649 1.88818C9.2231 1.90206 9.16427 1.90945 9.10657 1.91357L8.94348 1.91748C8.88695 1.91678 8.83173 1.91486 8.78137 1.90967C8.74556 1.90596 8.66217 1.89635 8.57922 1.86279C8.56006 1.85505 8.40582 1.79759 8.31458 1.62842C8.25571 1.51924 8.2357 1.38498 8.27258 1.25244C8.30507 1.13576 8.37054 1.06032 8.41028 1.02197C8.48407 0.950838 8.56288 0.918527 8.58704 0.908691C8.62301 0.89406 8.65685 0.884193 8.68274 0.877441L8.84485 0.848145C8.89823 0.842349 8.95044 0.839739 8.99915 0.840332ZM8.91711 0.965332C8.8844 0.984673 8.70395 1.09651 8.68176 1.34229C8.65896 1.59656 8.82725 1.73973 8.86145 1.76709C8.89446 1.79345 8.92507 1.8095 8.94446 1.81885L8.96497 1.82861C8.96695 1.82941 8.96898 1.82986 8.97083 1.83057C8.99125 1.82184 9.04806 1.79622 9.10461 1.7417C9.14091 1.70669 9.20378 1.63438 9.23547 1.521C9.27151 1.39153 9.25176 1.26005 9.19446 1.15381C9.14468 1.06157 9.0792 1.00823 9.04407 0.983887C9.01462 0.963487 8.98686 0.952312 8.9679 0.943848C8.95316 0.950289 8.93476 0.954902 8.91711 0.965332ZM8.80872 1.36084C8.92001 1.33184 9.07502 1.33341 9.15247 1.36475L9.17297 1.37646C9.20557 1.40207 9.11492 1.41953 8.94934 1.41748L8.83215 1.41162C8.77102 1.40526 8.74362 1.39433 8.75696 1.38135L8.80872 1.36084Z" fill="#3A3F45" stroke="#F0F0F0"/>
<path d="M1.68628 18.9536C1.6739 18.9536 1.66152 18.9535 1.64917 18.9536C1.6537 18.8977 1.66683 18.8464 1.68628 18.8003V18.9536ZM1.68628 18.9536C1.69833 18.9536 1.71038 18.9535 1.72241 18.9536C1.71784 18.8974 1.7059 18.8456 1.68628 18.7993V18.9536ZM16.2136 18.9536C16.2009 18.9536 16.1882 18.9535 16.1755 18.9536C16.1801 18.8974 16.1931 18.8456 16.2126 18.7993L16.2136 18.8003M16.2136 18.9536V18.8003M16.2136 18.9536C16.2257 18.9536 16.2377 18.9535 16.2498 18.9536C16.2452 18.8978 16.233 18.8463 16.2136 18.8003M16.2136 18.9536V18.8003M1.45776 18.4595C1.67843 18.4481 1.93595 18.4533 2.11987 18.4761L2.22046 18.4927C2.23697 18.4962 2.26295 18.5017 2.29175 18.5112C2.30512 18.5157 2.38403 18.5409 2.46167 18.605C2.50195 18.6382 2.59088 18.7218 2.62866 18.8657C2.6734 19.0364 2.62128 19.1886 2.54956 19.2876C2.48955 19.3703 2.41967 19.414 2.3894 19.4312C2.35353 19.4515 2.32203 19.4637 2.30347 19.4702C2.24139 19.492 2.18236 19.4992 2.16382 19.5015C2.06156 19.5142 1.88812 19.519 1.68628 19.519C1.48445 19.519 1.311 19.5142 1.20874 19.5015C1.19012 19.4992 1.13112 19.492 1.06909 19.4702C1.05052 19.4637 1.01902 19.4515 0.983154 19.4312C0.952864 19.4139 0.882979 19.3703 0.822998 19.2876C0.751294 19.1886 0.699167 19.0364 0.743896 18.8657C0.781683 18.7218 0.870606 18.6382 0.910889 18.605C0.988537 18.5409 1.06744 18.5157 1.08081 18.5112C1.10963 18.5017 1.13558 18.4962 1.1521 18.4927C1.18613 18.4855 1.22147 18.48 1.25269 18.4761L1.45776 18.4595ZM15.9841 18.4595C16.2048 18.448 16.4622 18.4533 16.6462 18.4761L16.7478 18.4927C16.7644 18.4962 16.7902 18.5017 16.8191 18.5112C16.8327 18.5157 16.9115 18.541 16.989 18.605C17.0294 18.6383 17.1183 18.7219 17.156 18.8657C17.2007 19.0365 17.1477 19.1886 17.0759 19.2876C17.0159 19.3704 16.946 19.414 16.9158 19.4312C16.8803 19.4513 16.8494 19.4637 16.8308 19.4702C16.7687 19.492 16.7087 19.4992 16.6902 19.5015C16.5879 19.5141 16.415 19.519 16.2136 19.519C16.012 19.519 15.8384 19.5141 15.7361 19.5015C15.7176 19.4992 15.6584 19.4919 15.5964 19.4702C15.5779 19.4637 15.5463 19.4514 15.5105 19.4312C15.4803 19.414 15.4104 19.3704 15.3503 19.2876C15.2786 19.1886 15.2256 19.0364 15.2703 18.8657C15.308 18.722 15.3969 18.6383 15.4373 18.605C15.5146 18.5411 15.5933 18.5158 15.6072 18.5112C15.636 18.5017 15.6619 18.4962 15.6785 18.4927C15.7127 18.4855 15.7487 18.48 15.78 18.4761L15.9841 18.4595ZM16.2136 19.019L16.1726 19.0181C16.1743 19.0509 16.1791 19.085 16.1882 19.1196C16.1945 19.1434 16.2041 19.1646 16.2126 19.1851C16.2213 19.1645 16.2318 19.1435 16.238 19.1196C16.2471 19.085 16.251 19.0509 16.2527 19.0181C16.2399 19.0181 16.2269 19.019 16.2136 19.019ZM1.68628 19.019L1.64624 19.0181C1.64794 19.0509 1.65277 19.085 1.66187 19.1196C1.66803 19.1431 1.67784 19.1639 1.68628 19.1841C1.69472 19.1639 1.70453 19.1431 1.71069 19.1196C1.71978 19.085 1.72364 19.0509 1.72534 19.0181C1.71259 19.0181 1.69955 19.019 1.68628 19.019ZM12.9333 10.4351C13.0142 10.4414 13.1414 10.4722 13.2498 10.5806C13.3578 10.6887 13.3889 10.8152 13.3953 10.896C13.4013 10.9724 13.3883 11.0331 13.3806 11.063C13.3652 11.1226 13.3416 11.1665 13.3337 11.1812C13.3145 11.2172 13.2935 11.2483 13.283 11.2632L13.1892 11.3853C13.1128 11.4826 13.0082 11.6055 12.8894 11.6821C12.8555 11.704 12.7993 11.7366 12.7263 11.7573C12.6543 11.7777 12.5241 11.7981 12.3796 11.7388C12.1359 11.6385 12.0741 11.4274 12.0583 11.311L12.0525 11.2339L12.0613 11.1411C12.077 11.0559 12.1097 10.9971 12.1179 10.9819C12.1381 10.945 12.16 10.9165 12.1736 10.8989C12.2019 10.8623 12.2331 10.8287 12.2585 10.8032C12.3115 10.7503 12.3768 10.693 12.4441 10.6401L12.5671 10.5474C12.582 10.5368 12.6122 10.5148 12.6482 10.4956C12.6627 10.4878 12.7075 10.4652 12.7673 10.4497C12.7973 10.442 12.8573 10.4291 12.9333 10.4351ZM5.36304 10.5503L5.60815 10.7788C5.64018 10.8108 5.67336 10.8455 5.70093 10.8774C5.71382 10.8924 5.73361 10.9161 5.75269 10.9438C5.76195 10.9574 5.77794 10.9821 5.7937 11.0142C5.80215 11.0314 5.84642 11.1191 5.84644 11.2397C5.84644 11.2796 5.84402 11.3812 5.78882 11.4907C5.71593 11.635 5.56808 11.756 5.37378 11.7739C5.22864 11.7872 5.11878 11.736 5.07788 11.7153C5.02701 11.6895 4.98567 11.6594 4.95874 11.6382C4.91023 11.5999 4.85646 11.5486 4.79956 11.4897L4.61987 11.2935L4.34253 10.979L5.04858 10.2729L5.36304 10.5503ZM12.7605 10.813C12.6269 10.758 12.5095 10.7787 12.4539 10.7944C12.4387 10.7987 12.4251 10.8042 12.4128 10.8091C12.4125 10.8104 12.4122 10.8117 12.4119 10.813C12.4047 10.8409 12.3923 10.9 12.3982 10.9751C12.4045 11.0546 12.4353 11.1802 12.5427 11.2876C12.6503 11.3951 12.7758 11.4259 12.8552 11.4321C12.9283 11.4379 12.9857 11.4248 13.0144 11.4175C13.0177 11.4095 13.0229 11.4015 13.0261 11.3921C13.0362 11.363 13.0525 11.3069 13.0525 11.2339C13.0525 11.2113 13.0513 11.1488 13.0203 11.0728C12.9849 10.9865 12.9059 10.8729 12.7605 10.813ZM12.5525 11.2339C12.5525 11.2105 12.6394 11.1225 12.7468 11.0376L12.7527 11.0337C12.934 10.8915 12.9386 10.8956 12.7966 11.0767L12.7908 11.0825C12.6629 11.2445 12.5773 11.31 12.5574 11.2622L12.5525 11.2339Z" fill="#3A3F45" stroke="#F0F0F0"/>
<path d="M8.95801 0.939941C12.2667 0.939941 14.8415 3.41224 14.9883 6.66748L14.9941 6.98486C14.9876 8.85175 14.3092 10.3488 12.9238 11.561C13.0292 11.6229 13.1436 11.6907 13.2627 11.7603L13.5166 11.9155C14.7756 12.7164 15.8411 13.8915 16.4834 15.2007L16.6943 15.6479C17.1546 16.6752 17.3994 17.5824 17.3994 18.3833V19.396L16.9248 19.4204L16.1816 19.4595L15.4375 19.4976L14.9121 19.5249V18.644L14.8955 18.4312C14.8628 18.179 14.7831 17.8176 14.667 17.4233C14.5527 17.0353 14.4169 16.6618 14.29 16.3833L14.167 16.1392C13.4741 14.9284 12.2906 13.9343 10.9541 13.4331L10.6846 13.3394C10.234 13.195 9.60394 13.1148 8.9502 13.1147C8.3778 13.1147 7.82318 13.1765 7.3916 13.2886L7.21484 13.3394C4.93753 14.0688 3.32998 16.016 2.99121 18.4673L2.96289 18.7065L2.92676 19.0493L2.87891 19.52L2.40625 19.4976L0.976562 19.4292L0.5 19.4067V18.3901C0.5 18.0292 0.6169 17.3608 0.75 16.8804L0.875977 16.4634C1.55628 14.402 2.95237 12.6966 4.84473 11.6313L4.9834 11.5522L4.73242 11.3032C3.48537 10.1057 2.90727 8.73557 2.90723 6.98779C2.90723 5.32824 3.48858 3.87424 4.62109 2.7417C5.85263 1.51016 7.22312 0.940042 8.95801 0.939941ZM8.9502 3.48389C8.49422 3.48389 8.26098 3.49545 8.0752 3.53174C7.94555 3.55709 7.82713 3.59719 7.6543 3.67529L7.46094 3.76709C6.791 4.09603 6.25354 4.5908 5.87891 5.22119L5.72852 5.49854C5.58613 5.78903 5.52699 5.94088 5.49414 6.11182C5.45882 6.29585 5.44914 6.52731 5.45117 6.98584L5.46387 7.51318C5.47183 7.6518 5.48415 7.75917 5.50195 7.854C5.53512 8.03049 5.59165 8.18251 5.71484 8.43701L5.80859 8.6167C6.30529 9.50518 7.20908 10.2205 8.14648 10.4634L8.25098 10.4858C8.512 10.5324 8.89079 10.5364 9.30176 10.4888C9.76806 10.4347 10.2043 10.3217 10.4795 10.187L10.7441 10.0435C11.3486 9.68081 11.8469 9.13767 12.1699 8.47705L12.2607 8.28369C12.3381 8.11145 12.3788 7.99237 12.4043 7.86182C12.4407 7.67496 12.4517 7.44075 12.4521 6.98682L12.4424 6.4585C12.4351 6.31979 12.4236 6.21166 12.4062 6.11572C12.3818 5.98089 12.3442 5.85893 12.2754 5.69678L12.1953 5.51904C11.8766 4.83904 11.2317 4.17102 10.5547 3.81006L10.4189 3.74268C10.1589 3.62078 10.0017 3.56452 9.82129 3.53174C9.62868 3.49676 9.3874 3.48389 8.9502 3.48389Z" fill="#3A3F45" stroke="#F0F0F0"/>
</svg>
