<svg width="16" height="19" viewBox="0 0 16 19" fill="none" xmlns="http://www.w3.org/2000/svg">
<path d="M13.6031 12.3651L13.3258 12.0506L13.6404 12.3279C13.9344 12.5871 14.0074 12.6797 13.9177 12.6797C13.8972 12.6797 13.7557 12.5381 13.6031 12.3651ZM11.9051 5.97865C11.9105 5.8454 11.9377 5.81829 11.9742 5.90954C12.0072 5.99211 12.0031 6.09077 11.9651 6.12878C11.9271 6.16679 11.9001 6.09923 11.9051 5.97865ZM7.87111 1.96376C7.95368 1.93072 8.05234 1.93478 8.09035 1.97279C8.12835 2.0108 8.0608 2.03784 7.94022 2.03287C7.80696 2.02738 7.77986 2.00028 7.87111 1.96376Z" fill="#3A3F45"/>
<path d="M7.87113 9.9711C7.9537 9.93806 8.05235 9.94212 8.09036 9.98012C8.12837 10.0181 8.06081 10.0452 7.94023 10.0402C7.80698 10.0347 7.77988 10.0076 7.87113 9.9711ZM3.89813 5.97904C3.90362 5.84579 3.93072 5.81868 3.96724 5.90993C4.00028 5.9925 3.99622 6.09116 3.95821 6.12917C3.9202 6.16718 3.89316 6.09962 3.89813 5.97904Z" fill="#3A3F45"/>
<path d="M1.49604 17.5314C1.50153 17.3982 1.52863 17.3711 1.56515 17.4623C1.59819 17.5449 1.59413 17.6436 1.55612 17.6816C1.51811 17.7196 1.49107 17.652 1.49604 17.5314ZM14.3072 17.4171C14.3126 17.2838 14.3397 17.2567 14.3763 17.348C14.4093 17.4305 14.4052 17.5292 14.3672 17.5672C14.3292 17.6052 14.3022 17.5376 14.3072 17.4171ZM2.97402 13.8947C2.97402 13.8709 3.06409 13.7808 3.17419 13.6945C3.35561 13.5522 3.35966 13.5563 3.21738 13.7377C3.06795 13.9282 2.97402 13.9888 2.97402 13.8947ZM2.29674 6.32172C2.30222 6.18847 2.32933 6.16137 2.36584 6.25262C2.39889 6.33519 2.39482 6.43385 2.35681 6.47185C2.3188 6.50986 2.29177 6.4423 2.29674 6.32172ZM2.29674 5.63541C2.30222 5.50216 2.32933 5.47506 2.36584 5.56631C2.39889 5.64888 2.39482 5.74754 2.35681 5.78554C2.3188 5.82355 2.29177 5.756 2.29674 5.63541ZM13.5065 5.52103C13.512 5.38778 13.5391 5.36067 13.5756 5.45192C13.6086 5.53449 13.6045 5.63315 13.5665 5.67116C13.5285 5.70917 13.5015 5.64161 13.5065 5.52103Z" fill="#3A3F45"/>
<path d="M7.87111 11.5727C7.95368 11.5397 8.05234 11.5437 8.09035 11.5817C8.12836 11.6197 8.0608 11.6468 7.94022 11.6418C7.80697 11.6363 7.77986 11.6092 7.87111 11.5727ZM13.524 6.04599C13.524 5.8258 13.5475 5.73572 13.5763 5.84582C13.605 5.95591 13.605 6.13607 13.5763 6.24616C13.5475 6.35626 13.524 6.26618 13.524 6.04599ZM2.29673 5.97926C2.30222 5.84601 2.32932 5.81891 2.36583 5.91016C2.39888 5.99273 2.39481 6.09139 2.3568 6.1294C2.3188 6.1674 2.29176 6.09985 2.29673 5.97926Z" fill="#3A3F45"/>
<path d="M15.9085 17.7604C15.914 17.6272 15.9411 17.6001 15.9776 17.6913C16.0107 17.7739 16.0066 17.8726 15.9686 17.9106C15.9306 17.9486 15.9036 17.881 15.9085 17.7604ZM7.80894 0.361385C7.92023 0.332384 8.07465 0.334291 8.15209 0.365623C8.22953 0.396956 8.13848 0.420684 7.94974 0.418353C7.76101 0.416022 7.69764 0.390387 7.80894 0.361385Z" fill="#3A3F45"/>
<path d="M0.314562 17.973C0.519025 17.9476 0.853601 17.9476 1.05806 17.973C1.26253 17.9984 1.09524 18.0191 0.686313 18.0191C0.277387 18.0191 0.110099 17.9984 0.314562 17.973ZM14.8414 17.973C15.0459 17.9476 15.3805 17.9476 15.585 17.973C15.7894 17.9984 15.6221 18.0191 15.2132 18.0191C14.8043 18.0191 14.637 17.9984 14.8414 17.973ZM3.99482 9.963L3.71751 9.64844L4.03207 9.92574C4.20508 10.0783 4.34663 10.2198 4.34663 10.2403C4.34663 10.33 4.254 10.257 3.99482 9.963ZM11.5529 10.2344C11.5529 10.2106 11.643 10.1205 11.7531 10.0342C11.9345 9.89191 11.9385 9.89596 11.7962 10.0774C11.6468 10.2679 11.5529 10.3285 11.5529 10.2344Z" fill="#3A3F45"/>
<path d="M0.714906 17.9645L0 17.9304V17.3902C0 17.0931 0.104249 16.4739 0.231664 16.0141C0.819409 13.8931 2.18849 12.1379 4.08987 11.0676C4.45128 10.8642 4.76204 10.6868 4.78045 10.6734C4.79886 10.66 4.48293 10.3312 4.07839 9.94278C2.93111 8.8411 2.40768 7.60211 2.40768 5.9881C2.40768 4.45382 2.94085 3.12931 3.97459 2.09557C5.11301 0.957148 6.35674 0.44043 7.95847 0.44043C11.0981 0.44043 13.5055 2.85089 13.4946 5.98354C13.4884 7.77056 12.8275 9.17047 11.4518 10.3108C11.2399 10.4864 11.0859 10.6439 11.1096 10.6608C11.1332 10.6777 11.5386 10.9171 12.0104 11.1927C13.2969 11.9443 14.3941 13.1156 15.0347 14.4214C15.6153 15.605 15.8995 16.5784 15.8995 17.3837V17.9218L15.1558 17.9602L14.412 17.9985L14.4123 17.6451C14.4127 17.0341 13.973 15.5415 13.6013 14.8917C12.799 13.4895 11.4001 12.3641 9.8371 11.8635C8.80518 11.533 7.09432 11.533 6.0624 11.8635C3.5142 12.6797 1.74925 14.9033 1.46523 17.6554L1.42981 17.9985L0.714906 17.9645ZM9.69902 9.63704C10.5258 9.23252 11.2029 8.54842 11.6192 7.69675C11.9104 7.10111 11.9514 6.89092 11.9522 5.9881C11.953 5.1102 11.9083 4.8627 11.6478 4.30704C11.2582 3.47583 10.462 2.67968 9.63081 2.29005C9.07594 2.02996 8.82641 1.98463 7.94975 1.98463C7.0438 1.98463 6.83869 2.02469 6.24021 2.31854C5.37547 2.74312 4.70264 3.41599 4.27944 4.27944C3.98512 4.87995 3.94708 5.07791 3.95112 5.9881C3.95502 6.86695 4.00085 7.11086 4.26437 7.65524C4.79614 8.75378 5.87443 9.65033 7.02125 9.94749C7.70822 10.1255 9.00888 9.9747 9.69902 9.63704Z" fill="#3A3F45"/>
</svg>
