<svg width="30" height="30" viewBox="0 0 30 30" fill="none" xmlns="http://www.w3.org/2000/svg">
<path d="M21.7014 9.97841C21.7014 11.5292 21.3276 12.983 20.5799 14.3399C19.8599 15.6969 18.7106 16.7907 17.1322 17.6215C15.5814 18.4522 13.6153 18.8676 11.2337 18.8676H6.37371V29.9999H0.558319V1.0061H11.2337C13.4768 1.0061 15.3876 1.3938 16.966 2.16918C18.5445 2.94457 19.7214 4.01072 20.4968 5.36764C21.2999 6.72457 21.7014 8.26149 21.7014 9.97841ZM10.9845 14.1738C12.5906 14.1738 13.7814 13.8138 14.5568 13.0938C15.3322 12.3461 15.7199 11.3076 15.7199 9.97841C15.7199 7.1538 14.1414 5.74149 10.9845 5.74149H6.37371V14.1738H10.9845Z" fill="#E6E6E6"/>
<path fill-rule="evenodd" clip-rule="evenodd" d="M27.6419 13.7911L27.6463 13.7831C28.2998 12.5969 28.6245 11.3346 28.6245 9.97841C28.6245 8.44928 28.2692 7.11865 27.5807 5.95532L27.5762 5.94775L27.572 5.94011C26.9249 4.80788 25.9326 3.89175 24.5342 3.20482C23.1516 2.5256 21.4245 2.15995 19.3107 2.15995H9.78913V28.8461H13.2968V17.7138H19.3107C21.5663 17.7138 23.3299 17.3193 24.6643 16.6044L24.6717 16.6004C26.0789 15.8598 27.0429 14.9196 27.6376 13.7991L27.6419 13.7911ZM28.5737 5.36764C27.7984 4.01072 26.6214 2.94457 25.043 2.16918C23.4645 1.3938 21.5537 1.0061 19.3107 1.0061H8.63528V29.9999H14.4507V18.8676H19.3107C21.6922 18.8676 23.6584 18.4522 25.2091 17.6215C26.7876 16.7907 27.9368 15.6969 28.6568 14.3399C29.4045 12.983 29.7784 11.5292 29.7784 9.97841C29.7784 8.26149 29.3768 6.72457 28.5737 5.36764ZM23.4269 13.9319L23.4189 13.9393C22.3426 14.9388 20.8121 15.3276 19.0614 15.3276H13.2968V4.58764H19.0614C20.7881 4.58764 22.2986 4.97108 23.3824 5.94083C24.4906 6.93243 24.9507 8.353 24.9507 9.97841C24.9507 11.5427 24.4862 12.9103 23.4346 13.9244L23.4269 13.9319ZM14.4507 14.1738H19.0614C20.6676 14.1738 21.8584 13.8138 22.6337 13.0938C23.4091 12.3461 23.7968 11.3076 23.7968 9.97841C23.7968 7.1538 22.2184 5.74149 19.0614 5.74149H14.4507V14.1738Z" fill="#E6E6E6"/>
</svg>
